<mxfile host="app.diagrams.net" modified="2022-09-23T02:55:24.215Z" agent="5.0 (Windows NT 10.0; Win64; x64) AppleWebKit/537.36 (KHTML, like Gecko) Chrome/105.0.0.0 Safari/537.36" etag="4cnmJlOjrDCBmrLRu8Gv" version="20.3.1" type="github" pages="3">
  <diagram id="1ODiky8oOXQyALTsi6lV" name="MVC">
    <mxGraphModel dx="942" dy="582" grid="1" gridSize="10" guides="1" tooltips="1" connect="1" arrows="1" fold="1" page="1" pageScale="1" pageWidth="827" pageHeight="1169" math="0" shadow="0">
      <root>
        <mxCell id="0" />
        <mxCell id="1" parent="0" />
        <mxCell id="aVxNvfsXQ5dD_XpQHYoW-1" value="&lt;font style=&quot;font-size: 30px;&quot;&gt;Vista&lt;/font&gt;" style="shape=folder;fontStyle=1;spacingTop=10;tabWidth=40;tabHeight=14;tabPosition=left;html=1;verticalAlign=top;" parent="1" vertex="1">
          <mxGeometry x="200" y="185" width="360" height="220" as="geometry" />
        </mxCell>
        <mxCell id="aVxNvfsXQ5dD_XpQHYoW-3" value="Desktop" style="strokeColor=#dddddd;shadow=1;strokeWidth=1;rounded=1;absoluteArcSize=1;arcSize=2;labelPosition=center;verticalLabelPosition=middle;align=center;verticalAlign=bottom;spacingLeft=0;fontColor=#999999;fontSize=14;whiteSpace=wrap;spacingBottom=2;" parent="1" vertex="1">
          <mxGeometry x="320" y="14" width="120" height="120" as="geometry" />
        </mxCell>
        <mxCell id="aVxNvfsXQ5dD_XpQHYoW-4" value="" style="sketch=0;dashed=0;connectable=0;html=1;fillColor=#757575;strokeColor=none;shape=mxgraph.gcp2.desktop;part=1;" parent="aVxNvfsXQ5dD_XpQHYoW-3" vertex="1">
          <mxGeometry x="0.5" width="89.5" height="90" relative="1" as="geometry">
            <mxPoint x="-45.5" y="12.5" as="offset" />
          </mxGeometry>
        </mxCell>
        <mxCell id="aVxNvfsXQ5dD_XpQHYoW-5" value="Controlador" style="shape=folder;fontStyle=1;spacingTop=10;tabWidth=40;tabHeight=14;tabPosition=left;html=1;horizontal=1;verticalAlign=top;fontSize=30;" parent="1" vertex="1">
          <mxGeometry x="200" y="455" width="360" height="220" as="geometry" />
        </mxCell>
        <UserObject label="Modelo" link="data:page/id,ZQmIOgsKu20kKeS-N8xk" id="aVxNvfsXQ5dD_XpQHYoW-6">
          <mxCell style="shape=folder;fontStyle=1;spacingTop=10;tabWidth=40;tabHeight=14;tabPosition=left;html=1;verticalAlign=top;fontSize=30;" parent="1" vertex="1">
            <mxGeometry x="200" y="725" width="360" height="220" as="geometry" />
          </mxCell>
        </UserObject>
        <mxCell id="aVxNvfsXQ5dD_XpQHYoW-7" value="" style="strokeWidth=2;html=1;shape=mxgraph.flowchart.database;whiteSpace=wrap;" parent="1" vertex="1">
          <mxGeometry x="320" y="1010" width="120" height="150" as="geometry" />
        </mxCell>
        <mxCell id="aVxNvfsXQ5dD_XpQHYoW-8" value="" style="html=1;shadow=0;dashed=0;align=center;verticalAlign=middle;shape=mxgraph.arrows2.twoWayArrow;dy=0.65;dx=22;rotation=90;" parent="1" vertex="1">
          <mxGeometry x="350" y="152" width="60" height="30" as="geometry" />
        </mxCell>
        <mxCell id="aVxNvfsXQ5dD_XpQHYoW-9" value="" style="html=1;shadow=0;dashed=0;align=center;verticalAlign=middle;shape=mxgraph.arrows2.twoWayArrow;dy=0.65;dx=22;rotation=30;" parent="1" vertex="1">
          <mxGeometry x="539.06" y="363.5" width="340" height="30" as="geometry" />
        </mxCell>
        <mxCell id="aVxNvfsXQ5dD_XpQHYoW-10" value="" style="html=1;shadow=0;dashed=0;align=center;verticalAlign=middle;shape=mxgraph.arrows2.twoWayArrow;dy=0.65;dx=22;rotation=90;" parent="1" vertex="1">
          <mxGeometry x="350" y="692" width="60" height="30" as="geometry" />
        </mxCell>
        <mxCell id="aVxNvfsXQ5dD_XpQHYoW-11" value="" style="html=1;shadow=0;dashed=0;align=center;verticalAlign=middle;shape=mxgraph.arrows2.twoWayArrow;dy=0.65;dx=22;rotation=90;" parent="1" vertex="1">
          <mxGeometry x="350" y="962" width="60" height="30" as="geometry" />
        </mxCell>
        <UserObject label="Entidad" link="data:page/id,ZQmIOgsKu20kKeS-N8xk" id="aVxNvfsXQ5dD_XpQHYoW-12">
          <mxCell style="shape=folder;fontStyle=1;spacingTop=10;tabWidth=40;tabHeight=14;tabPosition=left;html=1;fontSize=30;verticalAlign=middle;" parent="1" vertex="1">
            <mxGeometry x="230" y="790" width="140" height="130" as="geometry" />
          </mxCell>
        </UserObject>
        <UserObject label="Acesso" link="data:page/id,wxJ6CGiqs3Xky6Wcd4wg" id="aVxNvfsXQ5dD_XpQHYoW-13">
          <mxCell style="shape=folder;fontStyle=1;spacingTop=10;tabWidth=40;tabHeight=14;tabPosition=left;html=1;fontSize=30;" parent="1" vertex="1">
            <mxGeometry x="390" y="790" width="140" height="130" as="geometry" />
          </mxCell>
        </UserObject>
        <mxCell id="aVxNvfsXQ5dD_XpQHYoW-14" value="HTML" style="whiteSpace=wrap;html=1;shape=mxgraph.basic.document;fontSize=20;" parent="1" vertex="1">
          <mxGeometry x="220" y="260" width="60" height="70" as="geometry" />
        </mxCell>
        <mxCell id="aVxNvfsXQ5dD_XpQHYoW-15" value="CSS" style="whiteSpace=wrap;html=1;shape=mxgraph.basic.document;fontSize=20;" parent="1" vertex="1">
          <mxGeometry x="300" y="260" width="60" height="70" as="geometry" />
        </mxCell>
        <mxCell id="aVxNvfsXQ5dD_XpQHYoW-16" value="JS" style="whiteSpace=wrap;html=1;shape=mxgraph.basic.document;fontSize=20;" parent="1" vertex="1">
          <mxGeometry x="380" y="260" width="60" height="70" as="geometry" />
        </mxCell>
        <mxCell id="ViVn3gtHiOXWQP1a6J9n-1" value="PY" style="whiteSpace=wrap;html=1;shape=mxgraph.basic.document;fontSize=30;" parent="1" vertex="1">
          <mxGeometry x="330" y="535" width="100" height="100" as="geometry" />
        </mxCell>
        <mxCell id="rZL8dwaJbDFiOQx_lZm5-1" value="Servicios" style="shape=folder;fontStyle=1;spacingTop=10;tabWidth=40;tabHeight=14;tabPosition=left;html=1;horizontal=1;verticalAlign=top;fontSize=30;" vertex="1" parent="1">
          <mxGeometry x="690" y="455" width="360" height="220" as="geometry" />
        </mxCell>
        <mxCell id="rZL8dwaJbDFiOQx_lZm5-2" value="PY" style="whiteSpace=wrap;html=1;shape=mxgraph.basic.document;fontSize=30;" vertex="1" parent="1">
          <mxGeometry x="900" y="530" width="100" height="100" as="geometry" />
        </mxCell>
        <mxCell id="rZL8dwaJbDFiOQx_lZm5-4" value="Python-Flask" style="verticalAlign=middle;align=center;spacingTop=8;spacingLeft=2;spacingRight=12;shape=cube;size=10;direction=south;fontStyle=4;html=1;fontSize=18;" vertex="1" parent="1">
          <mxGeometry x="720" y="530" width="120" height="100" as="geometry" />
        </mxCell>
        <mxCell id="rZL8dwaJbDFiOQx_lZm5-5" value="" style="html=1;shadow=0;dashed=0;align=center;verticalAlign=middle;shape=mxgraph.arrows2.arrow;dy=0.69;dx=31;notch=0;fontSize=18;" vertex="1" parent="1">
          <mxGeometry x="840" y="557.5" width="60" height="45" as="geometry" />
        </mxCell>
        <mxCell id="rZL8dwaJbDFiOQx_lZm5-6" value="Bootstrap" style="verticalAlign=middle;align=center;spacingTop=8;spacingLeft=2;spacingRight=12;shape=cube;size=10;direction=south;fontStyle=4;html=1;fontSize=18;" vertex="1" parent="1">
          <mxGeometry x="460" y="260" width="90" height="70" as="geometry" />
        </mxCell>
        <mxCell id="rZL8dwaJbDFiOQx_lZm5-9" value="" style="html=1;shadow=0;dashed=0;align=center;verticalAlign=middle;shape=mxgraph.arrows2.twoWayArrow;dy=0.65;dx=22;rotation=0;" vertex="1" parent="1">
          <mxGeometry x="560" y="557.5" width="130" height="30" as="geometry" />
        </mxCell>
      </root>
    </mxGraphModel>
  </diagram>
  <diagram id="ZQmIOgsKu20kKeS-N8xk" name="Entidad">
    <mxGraphModel dx="942" dy="582" grid="1" gridSize="10" guides="1" tooltips="1" connect="1" arrows="1" fold="1" page="1" pageScale="1" pageWidth="827" pageHeight="1169" math="0" shadow="0">
      <root>
        <mxCell id="0" />
        <mxCell id="1" parent="0" />
        <mxCell id="O44qeDZg5T21y-bxiSzC-1" value="Entidad" style="shape=folder;fontStyle=1;spacingTop=10;tabWidth=40;tabHeight=14;tabPosition=left;html=1;fontSize=30;verticalAlign=top;" parent="1" vertex="1">
          <mxGeometry x="40" y="40" width="760" height="500" as="geometry" />
        </mxCell>
        <mxCell id="O44qeDZg5T21y-bxiSzC-2" value="Proveedores" style="swimlane;childLayout=stackLayout;horizontal=1;startSize=30;horizontalStack=0;rounded=1;fontSize=14;fontStyle=0;strokeWidth=2;resizeParent=0;resizeLast=1;shadow=0;dashed=0;align=center;verticalAlign=top;" parent="1" vertex="1">
          <mxGeometry x="160" y="120" width="160" height="120" as="geometry" />
        </mxCell>
        <mxCell id="O44qeDZg5T21y-bxiSzC-3" value="Id_Proveedores&#xa;Nombre&#xa;NIT&#xa;Telefono&#xa;Email" style="align=left;strokeColor=none;fillColor=none;spacingLeft=4;fontSize=12;verticalAlign=top;resizable=0;rotatable=0;part=1;" parent="O44qeDZg5T21y-bxiSzC-2" vertex="1">
          <mxGeometry y="30" width="160" height="90" as="geometry" />
        </mxCell>
        <mxCell id="O44qeDZg5T21y-bxiSzC-4" value="Items" style="swimlane;childLayout=stackLayout;horizontal=1;startSize=30;horizontalStack=0;rounded=1;fontSize=14;fontStyle=0;strokeWidth=2;resizeParent=0;resizeLast=1;shadow=0;dashed=0;align=center;verticalAlign=top;" parent="1" vertex="1">
          <mxGeometry x="520" y="120" width="160" height="130" as="geometry" />
        </mxCell>
        <mxCell id="O44qeDZg5T21y-bxiSzC-5" value="Id_Items&#xa;Descripcion&#xa;Cantidad&#xa;Valor_Unitario&#xa;Id_Proveedor&#xa;Id_Personal" style="align=left;strokeColor=none;fillColor=none;spacingLeft=4;fontSize=12;verticalAlign=top;resizable=0;rotatable=0;part=1;" parent="O44qeDZg5T21y-bxiSzC-4" vertex="1">
          <mxGeometry y="30" width="160" height="100" as="geometry" />
        </mxCell>
        <mxCell id="O44qeDZg5T21y-bxiSzC-6" value="Personal" style="swimlane;childLayout=stackLayout;horizontal=1;startSize=30;horizontalStack=0;rounded=1;fontSize=14;fontStyle=0;strokeWidth=2;resizeParent=0;resizeLast=1;shadow=0;dashed=0;align=center;verticalAlign=top;" parent="1" vertex="1">
          <mxGeometry x="160" y="350" width="160" height="160" as="geometry" />
        </mxCell>
        <mxCell id="O44qeDZg5T21y-bxiSzC-7" value="Id_Personal&#xa;Nombres&#xa;Apellidos&#xa;Documento&#xa;Telefono&#xa;Email&#xa;Rol&#xa;Contraseña" style="align=left;strokeColor=none;fillColor=none;spacingLeft=4;fontSize=12;verticalAlign=top;resizable=0;rotatable=0;part=1;" parent="O44qeDZg5T21y-bxiSzC-6" vertex="1">
          <mxGeometry y="30" width="160" height="130" as="geometry" />
        </mxCell>
        <mxCell id="O44qeDZg5T21y-bxiSzC-8" value="" style="edgeStyle=entityRelationEdgeStyle;fontSize=12;html=1;endArrow=ERoneToMany;rounded=0;exitX=1;exitY=0.144;exitDx=0;exitDy=0;exitPerimeter=0;entryX=-0.002;entryY=0.699;entryDx=0;entryDy=0;entryPerimeter=0;verticalAlign=top;" parent="1" source="O44qeDZg5T21y-bxiSzC-3" target="O44qeDZg5T21y-bxiSzC-5" edge="1">
          <mxGeometry width="100" height="100" relative="1" as="geometry">
            <mxPoint x="370" y="320" as="sourcePoint" />
            <mxPoint x="470" y="220" as="targetPoint" />
          </mxGeometry>
        </mxCell>
        <mxCell id="O44qeDZg5T21y-bxiSzC-9" value="" style="edgeStyle=entityRelationEdgeStyle;fontSize=12;html=1;endArrow=ERoneToMany;rounded=0;exitX=1.013;exitY=0.118;exitDx=0;exitDy=0;exitPerimeter=0;entryX=-0.001;entryY=0.832;entryDx=0;entryDy=0;entryPerimeter=0;verticalAlign=top;" parent="1" source="O44qeDZg5T21y-bxiSzC-7" target="O44qeDZg5T21y-bxiSzC-5" edge="1">
          <mxGeometry width="100" height="100" relative="1" as="geometry">
            <mxPoint x="420" y="480" as="sourcePoint" />
            <mxPoint x="520" y="380" as="targetPoint" />
          </mxGeometry>
        </mxCell>
      </root>
    </mxGraphModel>
  </diagram>
  <diagram id="wxJ6CGiqs3Xky6Wcd4wg" name="Acceso">
    <mxGraphModel dx="942" dy="582" grid="1" gridSize="10" guides="1" tooltips="1" connect="1" arrows="1" fold="1" page="1" pageScale="1" pageWidth="827" pageHeight="1169" math="0" shadow="0">
      <root>
        <mxCell id="0" />
        <mxCell id="1" parent="0" />
        <mxCell id="eq92IGWXVq2HXBycMyac-1" value="Acesso" style="shape=folder;fontStyle=1;spacingTop=10;tabWidth=40;tabHeight=14;tabPosition=left;html=1;fontSize=30;verticalAlign=top;" vertex="1" parent="1">
          <mxGeometry x="130" y="380" width="320" height="210" as="geometry" />
        </mxCell>
        <mxCell id="ek6a0NO8xiFl5wwbyyNp-1" value="PY" style="whiteSpace=wrap;html=1;shape=mxgraph.basic.document;fontSize=30;" vertex="1" parent="1">
          <mxGeometry x="330" y="460" width="100" height="100" as="geometry" />
        </mxCell>
        <mxCell id="ek6a0NO8xiFl5wwbyyNp-2" value="Python-Flask&lt;br&gt;SQL" style="verticalAlign=middle;align=center;spacingTop=8;spacingLeft=2;spacingRight=12;shape=cube;size=10;direction=south;fontStyle=4;html=1;fontSize=18;" vertex="1" parent="1">
          <mxGeometry x="150" y="460" width="120" height="100" as="geometry" />
        </mxCell>
        <mxCell id="ek6a0NO8xiFl5wwbyyNp-3" value="" style="html=1;shadow=0;dashed=0;align=center;verticalAlign=middle;shape=mxgraph.arrows2.arrow;dy=0.51;dx=29;notch=0;fontSize=20;" vertex="1" parent="1">
          <mxGeometry x="270" y="482.5" width="60" height="55" as="geometry" />
        </mxCell>
      </root>
    </mxGraphModel>
  </diagram>
</mxfile>
